<?xml version="1.0" encoding="utf-8"?>
<!-- Generator: Adobe Illustrator 24.0.1, SVG Export Plug-In . SVG Version: 6.00 Build 0)  -->
<svg version="1.1" id="Layer_1" xmlns="http://www.w3.org/2000/svg" xmlns:xlink="http://www.w3.org/1999/xlink" x="0px" y="0px"
	 viewBox="0 0 240 240" style="enable-background:new 0 0 240 240;" xml:space="preserve">
<style type="text/css">
	.st0{fill-rule:evenodd;clip-rule:evenodd;fill:#BDBDBD;}
	.st1{fill:#1D1D1D;}
</style>
<g>
	<g>
		<polygon class="st0" points="177.1,125.9 177.1,67.9 127.8,50.9 127.8,21.5 205,47.6 205,135.1 		"/>
		<path class="st1" d="M132.8,28.5L200,51.2v77.1l-17.9-5.9v-58l-49.3-17V28.5 M122.8,14.5v13.9v18.8v7.1l6.7,2.3l42.5,14.7v50.9
			v7.2l6.9,2.3l17.9,5.9L210,142v-13.8V51.2V44l-6.8-2.3L136,19L122.8,14.5L122.8,14.5z"/>
	</g>
	<g>
		<polygon class="st0" points="149.9,171.3 149.9,88.4 76.1,62.9 76.1,33 177.8,68.1 177.8,180.8 		"/>
		<path class="st1" d="M81.1,40l91.7,31.7v102.1l-17.9-6.1V84.8L81.1,59.3V40 M71.1,26v14v19.3v7.1l6.7,2.3l67,23.1v75.8v7.2
			l6.8,2.3l17.9,6.1l13.2,4.5v-13.9V71.7v-7.1l-6.7-2.3L84.4,30.5L71.1,26L71.1,26z"/>
	</g>
	<g>
		<path class="st0" d="M25,184.2v-139l125.6,43.5V227L25,184.2z M118.8,182.5v-0.2L56.5,161v0.2L118.8,182.5z"/>
		<path class="st1" d="M30,52.1l115.6,40V220L30,180.6V52.1 M123.8,189.5v-40v-40L51.5,84.4v80.4L123.8,189.5 M61.1,98.1l53.2,18.4
			V146v29.4l-53.2-18.2V98.1 M20,38.1v14v128.4v7.2l6.8,2.3l115.6,39.4l13.2,4.5v-14V92.2V85l-6.7-2.3l-115.6-40L20,38.1L20,38.1z"
			/>
	</g>
</g>
</svg>
